<svg width="18" height="18" viewBox="0 0 18 18" fill="none" xmlns="http://www.w3.org/2000/svg">
<path d="M8.4375 5.34375V13.2188C8.4375 13.2933 8.40787 13.3649 8.35512 13.4176C8.30238 13.4704 8.23084 13.5 8.15625 13.5H6.75V14.625H7.85602C8.00113 14.6232 8.14156 14.6764 8.24915 14.7738C8.35673 14.8712 8.42351 15.0057 8.43609 15.1502C8.4412 15.2272 8.43044 15.3043 8.40446 15.377C8.37849 15.4496 8.33787 15.5161 8.28512 15.5723C8.23237 15.6285 8.16862 15.6733 8.09782 15.7039C8.02703 15.7345 7.95071 15.7502 7.87359 15.75H4.51898C4.37362 15.7521 4.23284 15.6992 4.12496 15.6017C4.01708 15.5043 3.9501 15.3696 3.9375 15.2248C3.93239 15.1478 3.94316 15.0707 3.96913 14.998C3.9951 14.9254 4.03572 14.8589 4.08847 14.8027C4.14123 14.7465 4.20498 14.7017 4.27577 14.6711C4.34657 14.6405 4.42289 14.6248 4.5 14.625H5.625V13.5H2.25C1.80245 13.5 1.37322 13.3222 1.05676 13.0057C0.74029 12.6893 0.5625 12.2601 0.5625 11.8125V6.75C0.5625 6.30245 0.74029 5.87322 1.05676 5.55676C1.37322 5.24029 1.80245 5.0625 2.25 5.0625H8.15625C8.23084 5.0625 8.30238 5.09213 8.35512 5.14488C8.40787 5.19762 8.4375 5.26916 8.4375 5.34375ZM17.4375 3.375V14.625C17.4375 14.9234 17.319 15.2095 17.108 15.4205C16.897 15.6315 16.6109 15.75 16.3125 15.75H10.6875C10.3891 15.75 10.103 15.6315 9.89201 15.4205C9.68103 15.2095 9.5625 14.9234 9.5625 14.625V3.375C9.5625 3.07663 9.68103 2.79048 9.89201 2.5795C10.103 2.36853 10.3891 2.25 10.6875 2.25H16.3125C16.6109 2.25 16.897 2.36853 17.108 2.5795C17.319 2.79048 17.4375 3.07663 17.4375 3.375ZM14.3367 12.7666C14.3598 12.5919 14.3275 12.4143 14.2444 12.2588C14.1614 12.1033 14.0317 11.9778 13.8736 11.8997C13.7156 11.8217 13.537 11.7952 13.3631 11.8238C13.1892 11.8525 13.0286 11.9349 12.9039 12.0594C12.7792 12.184 12.6966 12.3445 12.6678 12.5184C12.639 12.6923 12.6654 12.8709 12.7432 13.0291C12.8211 13.1872 12.9465 13.317 13.1019 13.4002C13.2573 13.4834 13.4349 13.5158 13.6097 13.493C13.7939 13.4689 13.9651 13.3846 14.0965 13.2533C14.228 13.1219 14.3124 12.9509 14.3367 12.7666ZM15.75 7.27523C15.7374 7.13041 15.6704 6.99572 15.5625 6.89828C15.4547 6.80083 15.3139 6.74785 15.1685 6.75H11.8315C11.6864 6.74821 11.5459 6.80135 11.4384 6.89876C11.3308 6.99617 11.264 7.13065 11.2514 7.27523C11.2463 7.35218 11.2571 7.42935 11.283 7.50195C11.309 7.57456 11.3496 7.64105 11.4024 7.6973C11.4551 7.75354 11.5189 7.79834 11.5897 7.82891C11.6605 7.85948 11.7368 7.87517 11.8139 7.875H15.1889C15.2659 7.87498 15.3421 7.85915 15.4127 7.82849C15.4833 7.79784 15.5469 7.75301 15.5995 7.69678C15.6521 7.64056 15.6926 7.57413 15.7185 7.50162C15.7444 7.42911 15.7551 7.35206 15.75 7.27523ZM15.75 5.02523C15.7374 4.88041 15.6704 4.74572 15.5625 4.64828C15.4547 4.55083 15.3139 4.49785 15.1685 4.5H11.8315C11.6861 4.49785 11.5453 4.55083 11.4375 4.64828C11.3296 4.74572 11.2626 4.88041 11.25 5.02523C11.2449 5.10218 11.2557 5.17935 11.2816 5.25195C11.3076 5.32456 11.3482 5.39105 11.401 5.4473C11.4537 5.50354 11.5175 5.54834 11.5883 5.57891C11.6591 5.60948 11.7354 5.62517 11.8125 5.625H15.1875C15.2646 5.62517 15.3409 5.60948 15.4117 5.57891C15.4825 5.54834 15.5463 5.50354 15.599 5.4473C15.6518 5.39105 15.6924 5.32456 15.7184 5.25195C15.7443 5.17935 15.7551 5.10218 15.75 5.02523Z" fill="#1f8459"/>
</svg>
