<svg width="18" height="18" viewBox="0 0 18 18" fill="none" xmlns="http://www.w3.org/2000/svg">
<path d="M16.3125 6.74998C16.3133 7.59191 16.1041 8.42076 15.7039 9.1615C15.3037 9.90223 14.7251 10.5315 14.0204 10.9922C13.3158 11.453 12.5073 11.7307 11.6682 11.8002C10.8292 11.8698 9.98604 11.729 9.21511 11.3906L5.55464 15.6248C5.5462 15.6347 5.53636 15.6452 5.52722 15.6544C5.10521 16.0764 4.53285 16.3134 3.93605 16.3134C3.33924 16.3134 2.76688 16.0764 2.34488 15.6544C1.92287 15.2324 1.68579 14.66 1.68579 14.0632C1.68579 13.4664 1.92287 12.894 2.34488 12.472C2.35472 12.4629 2.36456 12.453 2.37511 12.4446L6.60933 8.78483C6.22997 7.91704 6.10139 6.9603 6.23818 6.02314C6.37497 5.08598 6.77166 4.20592 7.38324 3.48277C7.99482 2.75962 8.79682 2.22233 9.69826 1.93185C10.5997 1.64137 11.5645 1.60933 12.4832 1.83936C12.5779 1.86309 12.6648 1.91107 12.7354 1.97858C12.8059 2.04608 12.8577 2.13079 12.8856 2.22436C12.9134 2.31793 12.9165 2.41715 12.8944 2.51226C12.8723 2.60736 12.8258 2.69508 12.7596 2.76678L10.125 5.62498L10.5229 7.47772L12.375 7.87498L15.2332 5.23686C15.3049 5.17059 15.3926 5.12412 15.4877 5.10203C15.5828 5.07993 15.682 5.08298 15.7756 5.11086C15.8691 5.13874 15.9539 5.19049 16.0214 5.26104C16.0889 5.33158 16.1368 5.41848 16.1606 5.51319C16.2615 5.9177 16.3125 6.33306 16.3125 6.74998Z" fill="#1F8459"/>
</svg>
