<svg width="18" height="18" viewBox="0 0 18 18" fill="none" xmlns="http://www.w3.org/2000/svg">
<path d="M6.75 2.25C6.75 2.10082 6.80926 1.95774 6.91475 1.85225C7.02024 1.74676 7.16332 1.6875 7.3125 1.6875H10.6875C10.8367 1.6875 10.9798 1.74676 11.0852 1.85225C11.1907 1.95774 11.25 2.10082 11.25 2.25C11.25 2.39918 11.1907 2.54226 11.0852 2.64775C10.9798 2.75324 10.8367 2.8125 10.6875 2.8125H7.3125C7.16332 2.8125 7.02024 2.75324 6.91475 2.64775C6.80926 2.54226 6.75 2.39918 6.75 2.25ZM17.4375 8.4375C17.4375 8.58668 17.3782 8.72976 17.2727 8.83525C17.1673 8.94074 17.0242 9 16.875 9H16.3125V14.625C16.3125 14.9234 16.194 15.2095 15.983 15.4205C15.772 15.6315 15.4859 15.75 15.1875 15.75H13.5C13.2016 15.75 12.9155 15.6315 12.7045 15.4205C12.4935 15.2095 12.375 14.9234 12.375 14.625V13.5H5.625V14.625C5.625 14.9234 5.50647 15.2095 5.29549 15.4205C5.08452 15.6315 4.79837 15.75 4.5 15.75H2.8125C2.51413 15.75 2.22798 15.6315 2.017 15.4205C1.80603 15.2095 1.6875 14.9234 1.6875 14.625V9H1.125C0.975816 9 0.832742 8.94074 0.727252 8.83525C0.621763 8.72976 0.5625 8.58668 0.5625 8.4375C0.5625 8.28832 0.621763 8.14524 0.727252 8.03975C0.832742 7.93426 0.975816 7.875 1.125 7.875H1.92375L3.84961 4.50422C3.94801 4.33206 4.09017 4.18898 4.26168 4.08946C4.43319 3.98993 4.62796 3.93751 4.82625 3.9375H13.1738C13.372 3.93751 13.5668 3.98993 13.7383 4.08946C13.9098 4.18898 14.052 4.33206 14.1504 4.50422L16.0762 7.875H16.875C17.0242 7.875 17.1673 7.93426 17.2727 8.03975C17.3782 8.14524 17.4375 8.28832 17.4375 8.4375ZM6.1875 10.6875C6.1875 10.5383 6.12824 10.3952 6.02275 10.2898C5.91726 10.1843 5.77418 10.125 5.625 10.125H4.5C4.35082 10.125 4.20774 10.1843 4.10225 10.2898C3.99676 10.3952 3.9375 10.5383 3.9375 10.6875C3.9375 10.8367 3.99676 10.9798 4.10225 11.0852C4.20774 11.1907 4.35082 11.25 4.5 11.25H5.625C5.77418 11.25 5.91726 11.1907 6.02275 11.0852C6.12824 10.9798 6.1875 10.8367 6.1875 10.6875ZM14.0625 10.6875C14.0625 10.5383 14.0032 10.3952 13.8977 10.2898C13.7923 10.1843 13.6492 10.125 13.5 10.125H12.375C12.2258 10.125 12.0827 10.1843 11.9773 10.2898C11.8718 10.3952 11.8125 10.5383 11.8125 10.6875C11.8125 10.8367 11.8718 10.9798 11.9773 11.0852C12.0827 11.1907 12.2258 11.25 12.375 11.25H13.5C13.6492 11.25 13.7923 11.1907 13.8977 11.0852C14.0032 10.9798 14.0625 10.8367 14.0625 10.6875Z" fill="#1F8459"/>
</svg>
